<?xml version="1.0" standalone="no"?>
<!DOCTYPE svg PUBLIC "-//W3C//DTD SVG 20010904//EN"
 "http://www.w3.org/TR/2001/REC-SVG-20010904/DTD/svg10.dtd">
<svg version="1.0" xmlns="http://www.w3.org/2000/svg"
 width="397.000000pt" height="299.000000pt" viewBox="0 0 397.000000 299.000000"
 preserveAspectRatio="xMidYMid meet">
<metadata>
Created by potrace 1.13, written by Peter Selinger 2001-2015
</metadata>
<g transform="translate(0.000000,299.000000) scale(0.100000,-0.100000)"
fill="#000000" stroke="none">
<path d="M1798 2962 c-25 -27 -168 -320 -168 -342 0 -17 7 -20 45 -20 l45 0 0
-1300 0 -1300 95 0 95 0 0 1300 0 1300 45 0 c38 0 45 3 45 20 0 24 -152 331
-173 348 -11 9 -17 8 -29 -6z m97 -172 c41 -82 75 -152 75 -155 0 -3 -20 -5
-45 -5 l-45 0 0 -1300 0 -1300 -65 0 -65 0 0 1300 0 1300 -45 0 c-25 0 -45 2
-45 5 0 10 150 305 155 305 3 0 39 -67 80 -150z"/>
</g>
</svg>
